<?xml version="1.0" encoding="UTF-8"?>
<svg id="Layer_2" data-name="Layer 2" xmlns="http://www.w3.org/2000/svg" xmlns:xlink="http://www.w3.org/1999/xlink" viewBox="0 0 523.79 91.4">
  <defs>
    <style>
      .cls-1 {
        fill: url(#linear-gradient-2);
      }

      .cls-2 {
        fill: #ea0029;
      }

      .cls-3 {
        fill: url(#linear-gradient);
      }
    </style>
    <linearGradient id="linear-gradient" x1="60.73" y1="91.4" x2="60.73" y2="0" gradientUnits="userSpaceOnUse">
      <stop offset=".16" stop-color="#ea0029"/>
      <stop offset=".42" stop-color="#f32735"/>
      <stop offset=".68" stop-color="#ff4713"/>
      <stop offset="1" stop-color="#ff791f"/>
    </linearGradient>
    <linearGradient id="linear-gradient-2" x1="126.98" y1="91.4" x2="126.98" y2="0" xlink:href="#linear-gradient"/>
  </defs>
  <g id="Layer_1-2" data-name="Layer 1">
    <g>
      <g>
        <path class="cls-3" d="m44.6,91.27L121.45,0h-44.49S0,91.4,0,91.4h44.44"/>
        <polygon class="cls-1" points="141.59 45.7 134.02 45.7 134.18 45.57 172.19 0 167.72 0 149.41 0 127.7 0 89.58 45.7 122.86 45.7 81.76 91.4 126.2 91.4 126.36 91.27 164.37 45.7 159.9 45.7 141.59 45.7"/>
      </g>
      <g>
        <path class="cls-2" d="m274.95,23.98c12.5-.18,22.08,9.28,21.9,21.72.18,12.44-9.4,21.9-21.9,21.72-12.5.18-22.08-9.28-21.9-21.72-.18-12.44,9.4-21.9,21.9-21.72Zm0,7.97c-7.56,0-12.79,5.59-12.79,13.75s5.24,13.75,12.79,13.75,12.79-5.59,12.79-13.75-5.24-13.75-12.79-13.75Z"/>
        <path class="cls-2" d="m304.58,24.88h23.03c7.14,0,12.44,4.7,12.44,11.19,0,3.39-1.61,6.19-4.28,7.8v.12c3.63,1.67,5.83,5.24,5.83,9.58,0,8.75-5.18,12.97-15.83,12.97h-21.18V24.88Zm21.54,16.66c3.15,0,4.82-1.55,4.82-4.34s-1.67-4.34-4.82-4.34h-12.44v8.69h12.44Zm.95,17.02c3.75,0,5.42-1.67,5.42-5.06,0-3.09-1.84-4.88-5.36-4.88h-13.45v9.94h13.39Z"/>
        <path class="cls-2" d="m368.9,23.98c12.5-.18,22.08,9.28,21.9,21.72.18,12.44-9.4,21.9-21.9,21.72-12.5.18-22.08-9.28-21.9-21.72-.18-12.44,9.4-21.9,21.9-21.72Zm0,7.97c-7.56,0-12.79,5.59-12.79,13.75s5.24,13.75,12.79,13.75,12.79-5.59,12.79-13.75-5.24-13.75-12.79-13.75Z"/>
        <path class="cls-2" d="m418.05,23.98c12.5-.18,22.08,9.28,21.9,21.72.18,12.44-9.4,21.9-21.9,21.72-12.5.18-22.08-9.28-21.9-21.72-.18-12.44,9.4-21.9,21.9-21.72Zm0,7.97c-7.56,0-12.79,5.59-12.79,13.75s5.24,13.75,12.79,13.75,12.79-5.59,12.79-13.75-5.24-13.75-12.79-13.75Z"/>
        <path class="cls-2" d="m453.63,51c1.25,6.01,4.76,8.75,11.25,8.75,5.3,0,8.33-1.67,8.33-4.7,0-2.86-2.26-4.34-11.48-6.37-11.43-2.56-16.01-6.25-16.01-12.5,0-6.78,6.66-12.14,16.48-12.14,4.76,0,8.81,1.13,12.2,3.39,3.39,2.2,5.53,5.24,6.49,9.1l-8.81,2.08c-1.37-4.52-4.76-6.84-9.94-6.84-4.28,0-7.32,1.79-7.32,4.34,0,2.14,1.96,3.21,11.25,5.24,11.19,2.44,16.24,6.55,16.24,13.63,0,7.56-6.84,12.44-17.49,12.44-11.19,0-18.51-5.3-20.11-14.64l8.93-1.79Z"/>
        <path class="cls-2" d="m499.87,32.91h-14.82v-8.03h38.74v8.03h-14.82v33.62h-9.1v-33.62Z"/>
        <path class="cls-2" d="m249.83,66.53l-11.08-15.88c5.83-1.75,9.18-6.3,9.18-12.5,0-8.03-5.77-13.27-14.88-13.27h-21.96v41.65h9.1v-15.06h7.38s1.49,0,1.49,0l10.22,15.05h10.53Zm-29.62-23.09v-10.59h11.84c4.58,0,6.78,1.67,6.78,5.18s-2.44,5.42-6.66,5.42h-11.96Z"/>
      </g>
    </g>
  </g>
</svg>